<svg xmlns="http://www.w3.org/2000/svg" width="21.274" height="26.252" viewBox="0 0 21.274 26.252">
  <path id="电_话" data-name="电  话" d="M113.189,22.063c.048-.03.576-.36.73-.453a7.054,7.054,0,0,1,.756-.408c1.656-.753,3.115-.221,5.046,2.035,1.194,1.4,1.548,2.636,1.087,3.739a4.644,4.644,0,0,1-2.183,2.1c-.076.045-.755.44-.929.547-2.742,1.692-9.028-2.181-13.548-8.8-4.532-6.636-5.7-13.711-2.926-15.428l.367-.232.4-.259c1.405-.909,2.3-1.272,3.371-1.092a4.049,4.049,0,0,1,2.737,2.405c1.616,3.036,1.259,4.476-.819,5.785-.149.1-.68.416-.73.448-.509.315.353,2.427,2.359,5.363,2.03,2.969,3.728,4.593,4.283,4.252Z" transform="translate(-99.73 -3.765)" fill="#948885"/>
</svg>
